<svg xmlns="http://www.w3.org/2000/svg" viewBox="0 0 34.126 22.984">
  <defs>
    <style>
      .cls-1 {
        fill: #ffd400;
      }
    </style>
  </defs>
  <g id="Group_158" data-name="Group 158" transform="translate(-56 -94)">
    <path id="Path_114" data-name="Path 114" class="cls-1" d="M2.694,0H31.432a2.6,2.6,0,0,1,2.694,2.492,2.6,2.6,0,0,1-2.694,2.492H2.694A2.6,2.6,0,0,1,0,2.492,2.6,2.6,0,0,1,2.694,0Z" transform="translate(56 94)"/>
    <path id="Path_114-2" data-name="Path 114" class="cls-1" d="M2.694,0H31.432a2.6,2.6,0,0,1,2.694,2.492,2.6,2.6,0,0,1-2.694,2.492H2.694A2.6,2.6,0,0,1,0,2.492,2.6,2.6,0,0,1,2.694,0Z" transform="translate(56 103)"/>
    <path id="Path_114-3" data-name="Path 114" class="cls-1" d="M2.694,0H31.432a2.6,2.6,0,0,1,2.694,2.492,2.6,2.6,0,0,1-2.694,2.492H2.694A2.6,2.6,0,0,1,0,2.492,2.6,2.6,0,0,1,2.694,0Z" transform="translate(56 112)"/>
  </g>
</svg>
