<svg xmlns="http://www.w3.org/2000/svg" viewBox="0 0 1481.894 968.949">
  <defs>
    <style>
      .cls-1 {
        opacity: 0.496;
      }

      .cls-2 {
        fill: #fff;
        opacity: 0.997;
      }

      .cls-3 {
        fill: #edf0f4;
        stroke: #edf0f4;
        stroke-linejoin: bevel;
      }

      .cls-4, .cls-5, .cls-6 {
        fill: none;
        stroke-width: 2px;
      }

      .cls-4, .cls-5 {
        stroke: #2b319b;
      }

      .cls-4, .cls-6 {
        stroke-linecap: round;
      }

      .cls-6 {
        stroke: #ffd400;
      }
    </style>
  </defs>
  <g id="map" class="cls-1" transform="translate(-321.782 -22.484)">
    <path id="Map-2" data-name="Map" class="cls-2" d="M-5783.209,11612.642s2.792,10.32,5.605,12.916c1.837,1.7,6.11.342,10.5-1.812,1.937-.951,3.142-2.508,5.4-3.243a4.229,4.229,0,0,1,1.993,0c1.139.27,2.628,1.329,3.637.987,3.589-2.872,3.384-3.79,3.384-3.79l1.813-1.5,3-1.226a27.668,27.668,0,0,0,5.448-.184c.372-.051,1.042-.624,1.718-.814a24.017,24.017,0,0,0,2.538-.5c1.411-.484,8.511-.238,8.511-.238l3.166-2.665,3.73-4.923,1.87-.419.976.982,2.3-.275,6.632-16.489,1.929-4.462-7.346-12.059v-2.751l2.066-2.556,4.758-2.583,2.817-2.969s11.71-6.088,23.989-.834,22.275,15.887,22.275,15.887l2.749-.521h8.991l9.088,1,4.17,1.91,4.12,3.8,3.449-.282s12.518,6.485,21.3,15.854c7.062,5.925,12.009,12.278,13.834,16.854a6.07,6.07,0,0,1,0,4.762l.249,1.5,2.772,1.578a76.482,76.482,0,0,0,1.557,11.12,58.182,58.182,0,0,0,3.416,10.17l-2.185,5.811-.907,2.309.314,2.112,1.392,1.226,1.386,4.84,1.974,1.83v1.823l1.833,1.315v3.382l1.875,1.355v1.688l6.849,2.532,6.051,2.194.377,7.594a13.288,13.288,0,0,0,7.314,1.472,13.662,13.662,0,0,0,6.267-2.847v-9.534l8.063-10.976.424-3.313a48.066,48.066,0,0,1,5.638-6.076,23.7,23.7,0,0,1,7.124-4.029l2.1.274h2.063l1.952-.932,3.276-.126a15.855,15.855,0,0,1,2.926,1.32c.4.228.758.978,1.466,1.395a4.179,4.179,0,0,0,2.725.25c2.7-.515,3.672-5.024,3.672-5.024l1.791-4.438-.688-8.771,3.848-4.095,8-.834.731-8.133,3.133-4.975v-4.124l-1.513-2.687-.356-6.564-5.845-2.14.463-12.4-3.65.177-1.2-1.759h-2.917v.536h-4.223v-1.751l.875-.611h3.2v-2.1l-8.686-3.519h-1.418a4.929,4.929,0,0,1,.494-2.662,8.337,8.337,0,0,1,2.533-2.753l2.445,1.121h4.781l2.385-3.806,1.733-4.891a33.611,33.611,0,0,1-.366-6.963,20.76,20.76,0,0,1,1.4-5.856l3.74-4.67v-4.378l8.153-5.5h2.171l3.215,1.147,2.193-2.312-4.6-8.121h-2.221l-1.926,2.919h-4.061l-3.682-7.079-6.553-2.965v-1.991h3.678l3.245,1.991,4.52,4.384h4.994s5.192-5.3,4.58-9.251a4.388,4.388,0,0,0-2.575-3.205,10.167,10.167,0,0,0-4.938-.494l-3.536-1.313-2.448-1.874v-1.219h1.524s4.782,2.988,7.053,1.858c1.427-.726,1.415-3.642.184-6.152a9.468,9.468,0,0,0-2.776-3v-1.97a46.5,46.5,0,0,0,4.343-5.13c2.849-2.715,6.269-5.569,6.269-5.569h1.685s2.3,14.514,3.225,19.037c1.56,4.119,5.556-2.885,5.556-2.885v3.417l-2.209,4.233-.454,3.183,1.273.08v1.682l-1.577.559v2.105h1.577v1.793l-2.3.146-.824,3.214-.353,5.543h1.438l1.629-1.128h5.15l3.619-8.126h1.44l.211,2.133h.86v1.958l-2.512,2.2-1.48,3.49-.987,2.587h-3.7l-2.191,5.778,4.258,3.833,3.477-6.285h2.277l.379-1.2h3.163a4.72,4.72,0,0,0,2.154-2.439,6.755,6.755,0,0,0,.537-3.326l5.618-10.363v-6.51l-2.107-2.676v-2.035l3.073-3.114s4.158-7.871,8.554-11.143a11.489,11.489,0,0,1,9.276-1.912l3.577,4.559h2.989s1.04-.9,1.583-1.517c1.443-1.632,1.2-5.014,1.2-5.014l9.185-11.185,10.032-10.558,5.271-2.21h5.824l5.108,3.781h5.41l2.506,6.108a6.006,6.006,0,0,0,2.945,2.227,3.416,3.416,0,0,0,2.864-.847l.515-6.662,2.347-3.249h3.41l1.584-1.358-.534-3.973,2.536-6.016,3.352-5.167v-2.243l-5.626-3.972v-9.308l2.406-4.254-2.6-3.033v-2.347l8-8.869,4.729-.576v-6.088l2.667-3.121-.327-7.018s-2.321-4.492,3.971-6.781c2.382-1.007,3.9-1.717,5.856-2.631,3.447-1.609,6.09-2.976,6.09-2.976h7.262l2.068,6.163.336,3.989,2.662,2.01h3.654s2.2,1.994,3.848,1.131c.513-.27.532-1.179,1-2.146a20.64,20.64,0,0,0,1.095-2.835l3.737-.873,1.9-1.108h8.722l6.731.68,5.256-3.466.992,2.261,1.34.934,1.534-.408,4.231-4.393,4.013-.3,14.544,3.965h4.9a26.05,26.05,0,0,1,7.3-3.051c3.979-.916,7.936-1.411,7.936-1.411l4.228-4.573,5.861,2.536h2.547l3.049-3.82,12.17-11.914a54.219,54.219,0,0,1,15.012-3.123c13.392-1.117,34.125-.446,49.131,3.123,10.506,3.011,13.571,8.413,20.644,13.119,1.519,1.011,3.7,2.867,5.251,3.973a69.121,69.121,0,0,0,10.5,6.428l-1.809,2.716v4.2l3.694-.231,4.44-2.2,7.712-.226v-2.463l-4.5-6.492v-2.415a21.555,21.555,0,0,1,5.828-5.883,40.647,40.647,0,0,1,9.392-4.043v-6.519s-1.839-4.329-5.238-4.427-6.106,2.949-6.106,2.949l-.6,2.349s-3.042,2.6-5.033,2.925a3.044,3.044,0,0,1-2.943-.976l6.288-2.459s.748-2.249-.142-3.445-3.418-1.343-3.418-1.343l-3.095,1.126h-3.039a11.234,11.234,0,0,0-2.591-3.827,7.518,7.518,0,0,0-4.062-1.413v-.846l4.209-2.619,5.091-.145,1.92-.547h3.246l2.063,1.026h2.105v-6.214l-2.846-2.6-.441-3.84-2.347-1.171-3.31-6.046v-4.039l1.859-3.982v-6.028l-2.251-3.483v-4.644l1.273-1.965h7.605l-3.258,14.341s-3.726,3.993-1.92,6.883,6.582,2.918,6.582,2.918l1.848,11.382-.507,10.771,1.824,2.259,2.97.189,4.527-2.295,2.23,3.346-1.991,2.058.413,1.841,4.065-1.841,2.018-1.527,2.664-.308,4.4-1.6h2.309l6.049.727,4.255,5.8-1.732.493-3.337-3.519h-3.23l-.386,2.492,1.925,3.95.489,4.051-2.414,2.581v4.265l1.925,2.909.489,8.761,5.91,7.554,3.085-.349,1.781-1.487h7.83l4.92,7.832-1.454,1.44-.319,1.6,17.426,8.282,3.728-.322,3.749-2.223,3.731-4.795,3.285,1.3,2.441-.279,2.688-3.117h8.674l3.043.589h3.587s5.736-2.554,8.312-7.7,2.021-12.472,2.021-12.472l2.7-2.845v12.71l-6.544,10.306.766,4.919,3.077,2.631.7,3.344,4.343,4.614s12.644,5.959,19.054,13.019a23.475,23.475,0,0,1,6.225,14.99l1.391,2.091,3.474,2.854v.951h-4.864v2.962l8.463,5.1,17.318,14.039,5.334.6,4.19,2.788h3.287l2.912-5.858,3.254-5.366,5.042,3.76a21.148,21.148,0,0,1,8.927,4.006,34.216,34.216,0,0,1,4.448,4.81l5,5.318h2.345l8.5-5.655,9.02-7.616,3.98-.808h11.765v-3.021l-2-2.175-2.37-1.163v-1.417l2.9-1.053,1.47-1.72v-21.642s.136-15.556,8.78-29.479c7.845-12.85,22.6-21.924,22.6-21.924l10.611-6.6,1.429-4.846h3l1.109,2.072h2.172l1.52-2.072,5.021-5.741,2.669-2.175.917-1.759.543-4.139-1.46-1.832-.671-2.234,1.588-2.6v-8.225l4.342-4.41,5.277-2.5v-1.462l-3.93-3.034.647-1.478,4.979-2.338,3.6-4.739-.463-2.361-6.172-.205-5.329,2.309-2.186-.31-1.783-3.9a10.727,10.727,0,0,0-3.463-2.347c-2.088-.894-5.285-1.435-6.443-2.389-2.1-1.736-5.483-10.034-5.483-10.034l-3.275-.268v-2.946l3.275-1.031-.279-4.172-1.092-.76v-7.768l.906-2.594,5.131-5.344,2.419-3.956,1.663-1.183,3.3,2.2,3.29,1.426h3.051l2.235-1.426,3.557-1.247,5.121-.633,2.563-2.345v-1.58l-1.94-.7-2.23-3.4-3.779-2.7,1.381-2.224-1.979-2.4,1.078-3.967s-5.789-10.666,0-31.964c2.075-8.39,5.528-13.76,8.81-21.413,2.773-6.47,8.3-9.8,10.843-15.4a45.034,45.034,0,0,0,3.506-16.416l10.316-14.984v-5.3h-2.685v2.809l-2.806,2.487h-2.05l-1.219-4.447.67-12.489-3.741-17.616-7.406-11.547-.884-7.655-4.68-8.227.712-3.62h3.968l3.908,9.485.916,1.793,2.2-.637,1.27-2.514h1.514v3.719a20.074,20.074,0,0,0,1.558,4.888c1.2,2.481,3.313,5.273,4.262,8.359,1.673,5.441.872,8.521.872,8.521l9.954,14.366-.413,3.077-2.389,2.428-3.527,1.927.434,1.714,4.609,3.18,4.429,1.714,6.327,1.62,4.259,1.962,2.963-.419,4.293-2.068,3.973,1.02,4.755-2.114a34.268,34.268,0,0,1,6.5-6.607,79.19,79.19,0,0,1,10.127-6.342l.422-17.125h1.762l1.347,13.969,3.412-2.6,4.957-8.033,1.023-6.144h3.954s5.145-9.628,12.3-14.549,16.311-5.141,16.311-5.141l6.989-2.1V10718.77l-465.291.327-3.392-1.192a31.372,31.372,0,0,1-3.743,9.912,28.741,28.741,0,0,1-7.26,7.326l-7.432.934v4.163l2.776,1.366,4.655,3.682,1.017,10.523,3.254,3.466-1.879,7.547,2.9,16.743s.206,5.094,2.482,7.82,6.62,3.088,6.62,3.088l5.245,3.122,3.359-1.1,2.656-3.765,3.814-2.13,4.261-1.6,1.184-3.587h11.992l5.967-4.823,6.354-3.476,18.268,12.411v2.021l-19.429-7.291-1.912,1.158a5.177,5.177,0,0,1-3.28,4.112c-2.943,1.027-8.494,0-8.494,0l-14.909,9.724-1.8,12.76-3.7,10.356-2.948,1.3v-3.263l1.978-3.576-.54-7.626-4.076-.993-1.785,2.382-2.2-.632-1.655-3.11,1.655-5.046-4.356-.5-1.262,1.024s-2.853-.654-5.933,4.059-5.837,14.626-5.837,14.626l-4.523,2.658-4.384,5.682-3.539,1.012s-4.24,4.407-9.649,10.619c-5.347,6.141-9.591,13.6-17.879,15.771-5.482,1.434-15.306,1.6-20.926-1.02-4.131-4.3-6.146-8.538-9.062-11.354a19.735,19.735,0,0,0-5.673-3.879l-6.716.481h-7.337l-1.925-.785-2.091-.334-6.832-4.159a135.19,135.19,0,0,1-14.524.854,90.8,90.8,0,0,1-12.861-1.079l-.564,8.55-1.763,1.761v4.45l.989,2.525v15.553l-1.347,15.384-2.309,5.463-1.342,10.631-2.039,1.639v2.1l3.381,2.212-.407,1.951-4.944,4.964-4.673,8.163-1.433,10.9.582,5.229,1.335,1.452-.484,5.949-1.433.347-.306,2.523.888,1.135-1.91,5.019-.434,20.454.86,28.509-.86,12.847-1.979,11.437a18.044,18.044,0,0,1-4.629,4.932c-2.98,2.282-8,4.762-10.759,8.086a28.363,28.363,0,0,0-6.271,13.052l-4.323,1.138-2.714,2.143v1.982l.62,2.556-2.166,1.777-3.761,1.336-.922,1.927,1.557,3.594v3.648l-1.557,5.413-3.907,5.407-9.418,6.886-1.064,3.388,1.064,1.833v1.869l-7.7,1.457-2.652,4.832-2.681,2.9-7.025.9-1.249,3.731-1.865,2.6h-2.215l-1.9-1.159-1.823.578v2.774l-1.393.943h-5.683v2.94l1.4.8-.847,4.1-.783,1.016v2.976l-.886,1.06a7.249,7.249,0,0,0-3.689,2,10,10,0,0,0-1.925,4.531s-.915,15.083-6.432,24.257-15.634,12.437-15.634,12.437l-4.079,4.706-3.924.52-1.98-3.053h-1.4l-3.333,2.79a9.638,9.638,0,0,0-5.2,2.273,30.039,30.039,0,0,0-5.044,6.3h-3.044l-2.048-1.548-7.443-.542-.45-1.917h-3.157v-3.349h-2.039l-6.7,4.254,2.407,2.452,3.454,1.367,3.521,3.512v3.105l-3.521,1.219-2.259,2.934v15.253l7.983,10.141v3.1l-2.2,1.5-3.985,1.1-1.794,4.422h-2.084l-.916-9.082v-10.648l-2.832-3.086-3.711-1.322v-3.178l1.987-4.727-1.065-2.642h-3.333l-2.184,3.882-2.4,2.8-6.354,6.261-6.639,3.2-6.591-1.729-7.23.536-2-1.093-5.561,3.527v1.849l.907,1.326v32.431l-3.137,3.287v2l2.229.956-2.229,22.411-2.942,18.762a37.042,37.042,0,0,1-6.151,9.732,55.031,55.031,0,0,1-10.042,8.253l-2.823-2.044h-2.041s.339,5.158-5.346,8.865-17.084,5.967-17.084,5.967l-1.555,3.388,1.555,3.042s1.112,2.625.364,4.5-3.168,2.435-3.168,2.435v3.866l.543,1.832-1.668,1.657,1.668,2.093-7.181,26.166-4.521,3.4-1.121,4.5-2.54.592-2.2,4.28-4.974,5.911-14.524.473-1.071,7.659-2.491,3.329-7.095,20.218-4.945,5.433-3.416-.51-5.7,4.512v3.375l-7.515,5.044s-1.4,1.936-4.642,5.7c-1.713,2-3.738,5.369-8.143,7.676-11.41,5.977-19.742,4.277-19.742,4.277l-2.392-4.277-8.337,1.258.446,1.825-1.977,1.649s1.132,4.44-2.128,11.407-10.908,16.457-10.908,16.457l-1.376,17.1-2.353,3.352h-.878v-2.5l.878-10.344-4.692-3.911-5.264-1.562-1.466-5.205-5.963-8.063v-1.953l-1.979,1.953-4-.439-2.9-1.514h-4.294l-8.391,1.514-6.578,1.367-2.937.967-5.029,3.75v3.3l-9.111,4.878-8.7,7.256h-3.373l-1.483,2.229-1.6,4.384-4.479,3.028-3.063,5.024a32.509,32.509,0,0,1-9.506,3.671,74.425,74.425,0,0,1-13.04,1.247l1.078,1.231,2.581,1.769h-5.479l-4.976,6.291-3.679,13.087-3.722,2.194.493,4.105-2.594,2.058.352,2,.962.885v1.6s-1.617,2.991-1.759,10.4c.146,4.818,1.555,12.855,1.759,18.9a38.561,38.561,0,0,1-.7,9.9,9.5,9.5,0,0,0-2.164,9.516c1.465,2.357,3.987,3.075,6.077,4A6.359,6.359,0,0,1-5783.209,11612.642Z" transform="translate(6114 -10695.001)"/>
    <path id="Devon" class="cls-3" d="M-5236.847,10905.151l9.387-2.589h17.214v4.187h5.074l13.412,12.227,3.848,18.67,11.306,3.792v10.422l-6.97,16.453-4.336,6.421v23.224l-18.051,9.535,5.377,10.118h8.826l8.184,13.722,8.982,5.162v-8.991l11.984-3.233,4.641,7.063-4.641,5.162,1.84,4.5,1.043,3.581-2.883,2.062,9.868,30.086-3.5,5.164v7.4l6.56,3.828,3.424,9.375.7,14.183,5.573,7.87v10.687l6.281,5.12,7.407,1.763,1.2,5.279-3.487,26.642-2.864,4.412v5.593h7.168l5.668,8.241v-9.96l6.957,6.188-3.808,4.777,6.956,16.849-3.733,10.563,2.624,2.5,5.845-8.077,6.438,7.244h11.092l1.44,2.735-.794,4.973,5,15.715,5.778,1.25v4.2l-2.86,2.688v2.644h-2.917l-8.317-2.644-2.367,5.144,2.367,9.829-9.585,8.549,1.815,8.954,8.872-2.768-2.857-6.187h2.857l2.213,10.834.794,4.664,4.207,2.92-5,13.582.247,6.467,7.678.227-3.164,14.3s-3.163,4.151-2.079,6.61,6.743,3.251,6.743,3.251l1.754,10.97-.357,10.731,1.569,2.446,3.033.315,4.568-2.252,2.178,3.241-1.905,2.349.565,1.425,3.331-1.425,2.668-1.824,2.475-.228,4.859-1.6,4.79.315,3.35.608,3.994,5.521-1.432.577-3.5-3.587h-3.1l-.486,2.685,1.772,3.607.641,4.225-2.414,2.613v4.249l1.927,3.081.486,8.483,5.853,7.614,3.061-.229,1.807-1.674h7.708l5.112,7.786-1.578,1.73-.252,1.506,17.3,8.3,3.872-.405,3.839-2.272,3.756-4.67,2.43,1.105,1.035.173,1.736-.173,1.128-.887,1.935-2.337h8.8l3.038.61h3.24s6.074-2.656,8.663-7.9,1.933-12.323,1.933-12.323l2.6-2.594.2,12.349-6.7,10.466.833,4.947,2.914,2.5.874,3.524,4.3,4.609a56.606,56.606,0,0,1,18.76,12.784,24.406,24.406,0,0,1,5.5,9.468c.53,1.816,1.167,5.79,1.167,5.79l1.278,1.992,3.536,2.942-.353.857h-4.461v3.08l8.377,4.993,17.317,14.065,5.173.528,4.309,2.792h3.229l2.887-5.511,3.307-5.687,4.964,3.751a19.443,19.443,0,0,1,8.765,3.749c1.759,1.281,3.166,3.634,4.965,5.479,2.395,2.452,4.768,4.909,4.768,4.909h2.376l8.8-5.929,8.64-7.4,4.107-.7h11.643v-2.933l-1.944-2.3-2.317-1.057v-1.444l2.865-1.223,1.4-1.672s-.263-5.2,0-14.087c.1-3.247-.05-7.583.371-12.046a71.54,71.54,0,0,1,2.193-11.049,44.87,44.87,0,0,1,3.418-8.931c.515-1,1.408-2.369,1.967-3.655,1.14-2.628,3.978-5.361,5.62-7.842,1.969-2.979,5.215-5.136,7.687-7.677,2.812-2.894,6.592-5.082,9.464-7.267,3.109-2.365,5.587-3.511,7.785-4.95,1.964-1.288,3.505-2.164,3.505-2.164l1.431-4.742h2.962l1.215,2.029h2.168l2.672-3.715,3.5-3.76,2.916-2.581,1.012-1.687.542-4.1-1.554-1.832-.588-2.388,1.6-2.476v-8.2l4.04-4.252,5.607-2.785v-1.292l-3.939-3.043.749-1.678,4.993-2.287,3.411-4.781-.537-2.276-6.022-.213-3.791,1.569-1.494.739-2.346-.259-1.764-3.927-3.147-2.245-6.29-2-2.608-3.193-3.372-7.3-3.074-.328-.173-2.732,3.248-1.241-.167-3.768-1.147-1.245v-7.59l.853-2.585,5.208-5.336,2.4-4.1,1.5-1.072,2.954,1.876,3.893,1.568h2.921l2.356-1.326,3.611-1.187,5.025-.714,2.56-2.339-.148-1.617-1.67-.413-2.611-3.719-3.559-2.649,1.363-2.055-1.936-2.44.976-3.836s-4.988-10.139-.976-28.276a72.822,72.822,0,0,1,2.932-10c.592-1.557,1.425-3.019,2.142-4.741,1-2.416,2.057-4.56,3.145-6.9a67.005,67.005,0,0,1,3.348-6.76,29.024,29.024,0,0,1,4.494-5.595,22.858,22.858,0,0,0,5.569-9.129,51.682,51.682,0,0,0,2.294-9.9,25.643,25.643,0,0,0,.212-4.06l6.2-9.011,4.167-6.013v-5.13h-2.587v2.256l-2.7,2.874h-2.351l-1.14-4.492.721-12.465-3.681-17.321-7.5-11.686-.832-7.645-4.666-8.172.676-3.75h3.99l4.854,11.271,1.9-.6,1.473-2.692h1.392l.14,3.674,1.286,4.609,3.894,6.953,1.334,4.294.47,3.747-.3,2.248,9.961,14.51-.313,2.8-2.513,2.567-3.508,1.894.315,1.61,4.966,3.518,3.882,1.557,3.414.939,3.229.667,4.312,1.988,2.83-.437,4.4-2.017,3.855.945,4.824-2.087a42.421,42.421,0,0,1,6.275-6.308,70.076,70.076,0,0,1,10.259-6.536l.5-16.736.844-.59.976.378,1.375,13.528,3.33-2.424,5.025-8.013,1.069-6.208h3.968s1.276-3.877,10.149-9.482c2-1.267,9.145-2.523,12.659-3.309,3.031-.679,12.621-2.464,12.621-2.464h34.169l9.687-10.044s17.968,2.618,32.222,0a44.666,44.666,0,0,0,22.473-11.1l16.814-11.291,31.576,5.76,28.45,8.126s39.689,16.92,74.108,41.637c3.208,2.3,7.007,2.676,11.248,5.048a140.771,140.771,0,0,1,21.671,15.348c8.787,7.676,24.727,24.039,28.963,36.466,2.413,7.078-1.2,9.547-1.936,14.856a72.206,72.206,0,0,0,0,15.472s15.309-9.646,15.346-24.62c.008-3.256-.813-6.736-4.437-8.715-2.547-1.39-7.869-1.184-8.974-4.177-1.167-3.162-4.964-8.4-5.12-12.339-.358-8.994,5.568-17.089,6.917-20.114,5.58-12.522,19.214-12.177,19.214-12.177v-35.113l-.943-391.632-796.006,1.118-4-1.118a33.449,33.449,0,0,1-.968,3.5c-.861,2.538-2.3,6.637-5.381,9.558-1.29,1.225-2.874,3.014-4.634,3.869a13.128,13.128,0,0,1-3.568.684c-2.2.405-3.807.571-3.807.571v4.108l2.579,1.3,4.8,3.862.908,10.411,3.309,3.611-1.823,6.884,3.707,22.317a9.768,9.768,0,0,0,3.214,4.221,12.1,12.1,0,0,0,5.057,1.576l5.065,3.127,3.575-1.09,2.587-3.782,3.749-2.073,4.313-1.8,1.275-3.354h11.719l6.059-4.849,6.514-3.506,18.255,12.47v1.993l-19.42-7.347-1.92,1.154a6.238,6.238,0,0,1-1.068,2.437,6.411,6.411,0,0,1-2.631,1.758,11.98,11.98,0,0,1-4.47.39,23.136,23.136,0,0,1-3.572-.39l-15.054,9.642-1.667,12.795-3.732,10.205-3.047,1.329v-3.12l2.109-3.566-.6-7.26-1.24-.778-2.69-.511-2.025,2.183-1.614-.32-.84-.888-1.4-2.374,1.658-5.074-4.126-.553-1.286,1.095s-3.425-.436-6.355,4.284-5.484,14.191-5.484,14.191l-4.509,2.691-4.316,5.807-3.457.949s-5.118,5.033-10.261,11.057c-2.87,3.362-5.75,7.662-9.4,10.887a22.627,22.627,0,0,1-11.687,5.236c-4.7.739-11.817.354-16.63-1.456a9.284,9.284,0,0,1-2.718-2.48c-1.988-2.257-3.721-5.567-5.712-7.651-4.017-4.2-6.736-5.314-6.736-5.314l-14.042.557-2.075-1-2.2-.257-7.046-4.293a85.446,85.446,0,0,1-12.9,1.062,116.347,116.347,0,0,1-14.17-1.062l-.664,8.347-1.937,1.954v4.034l1.125,2.82v15.7l-.808,8.582-.619,6.638-2.185,5.326-.271,1.884-1.026,8.563-2.275,1.986.34,2.345Z" transform="translate(6091.291 -10695.004)"/>
    <g id="Small_paths" data-name="Small paths" transform="translate(421.001 358.084)">
      <path id="Path_146" data-name="Path 146" class="cls-4" d="M-4995.845,11095.705h59.534s35.478,3.144,61.052-3.774c10.716-2.9,15.792-9.545,23.541-14.433,10.238-6.454,15.816-10.051,15.816-10.051" transform="translate(5660.276 -11067.447)"/>
      <path id="Path_147" data-name="Path 147" class="cls-4" d="M-4782.849,11104.692s43.9-8.542,66.139,8.471,23.618,57.979,23.618,57.979" transform="translate(5651.37 -11068.872)"/>
      <path id="Path_148" data-name="Path 148" class="cls-5" d="M-4781.913,11327.36s11.534-15.064,6.209-30.475c-2.955-8.551-13.273-14.977-20.165-21.191a31.107,31.107,0,0,1-7.343-9.97" transform="translate(5652.361 -11075.595)"/>
      <path id="Path_149" data-name="Path 149" class="cls-5" d="M-5057.913,11275.98v13.177s8.815,7.584,12.451,13.815,2.087,11.113,2.087,11.113-12.591,32.822-7.183,53.128,27.625,20.051,27.625,20.051" transform="translate(5662.827 -11076.015)"/>
      <path id="Path_150" data-name="Path 150" class="cls-4" d="M-5209.221,11331.125l-1.628,20.12-8.335,8.959.649,36.606" transform="translate(5669.453 -11078.57)"/>
      <path id="Path_151" data-name="Path 151" class="cls-4" d="M-5469.156,11356.37l44.57,1.608s17.5-7.171,39.593,1.362c8.331,3.219,10.992,11.42,19.175,16.6,12.878,8.153,24.7,14.723,24.7,14.723" transform="translate(5679.724 -11079.27)"/>
      <path id="Path_152" data-name="Path 152" class="cls-4" d="M-5501.006,11484.59a120.233,120.233,0,0,0-14.57,13.75c-7.44,8.457-12.636,19.984-12.221,32.051.283,8.2,2.4,19.72,7.528,26.856,8.592,11.95,22.243,17.188,22.243,17.188" transform="translate(5682.135 -11084.609)"/>
      <path id="Path_153" data-name="Path 153" class="cls-4" d="M-5688.747,11522s13.736,12.114,21.587,25.382a83.277,83.277,0,0,1,9.818,27.688" transform="translate(5688.747 -11086.125)"/>
    </g>
    <path id="Main_Path" data-name="Main Path" class="cls-6" d="M-5691.6,11547.578a73.318,73.318,0,0,0,14.551,1.265c8.9,0,19.613-3.284,19.613-3.284s11.685,2.335,32.363-7.188c6.176-2.844,10.438-8.842,19.341-14.166,6.714-4.016,12.8-10.976,20.734-16.279,8.807-5.891,19.691-14.951,28.828-21.093,11.054-7.432,18.685-10.965,27.017-16.208,10.531-6.626,20.106-13.813,20.106-13.813l21.568-1.705,40.85-11.878s41.609-11.645,65.946-30.522,30.444-44.246,30.444-44.246l34.342-27.836s24.6-17.824,46.8-24.059c28.058-9.948,41.386-7,41.386-7l19.5,4.5a171.063,171.063,0,0,1,27.607,8.694,161.282,161.282,0,0,1,24.88,13.77s13.045,12.8,40.358,19.892,67.015,12.044,67.015,12.044,17.483-19.38,53.844-34.779c10.647-4.509,25.932-11.2,41.242-14.573,10.545-2.324,21.263-1.54,29.911-3.6,19.769-4.721,28.136-8.944,28.136-8.944s15.047-14.143,30.176-29.982,30.535-34.041,30.535-34.041a109.456,109.456,0,0,1,23.118-16.521c13.024-6.718,28.979-10.349,28.979-10.349s7.868-7.863,11.038-16.662,2.95-13.342,1.654-16.682-4.043-6.652-8.921-9.886a44.158,44.158,0,0,0-10.608-4.89s-14.53-15.467-22.142-33.237-8.308-37.848-8.308-37.848-3.985-19.176-15.8-29.577-30.6-10-30.6-10-34.35,5.042-54.858-12.481-25.408-56.645-25.408-56.645a242.8,242.8,0,0,0-16.488-24.709,199.959,199.959,0,0,0-18.88-20.7s-21.874-30.213-33.516-62.9-11.157-67.655-11.157-67.655" transform="translate(6109.866 -10698.858)"/>
  </g>
</svg>
