<svg xmlns="http://www.w3.org/2000/svg" viewBox="0 0 35.517 21.447">
  <defs>
    <style>
      .cls-1 {
        fill: #ffd400;
      }
    </style>
  </defs>
  <g id="Arrow" transform="translate(-48.375 -94.621)">
    <path id="Path_114" data-name="Path 114" class="cls-1" d="M1.983,0H23.13A1.764,1.764,0,0,1,25,2c0,1.376-1.075,2.764-2.17,2.764L1.983,4.983A2.281,2.281,0,0,1,0,2.492,2.281,2.281,0,0,1,1.983,0Z" transform="matrix(0.695, 0.719, -0.719, 0.695, 51.96, 94.621)"/>
    <path id="Path_134" data-name="Path 134" class="cls-1" d="M1.975,0,22.46-.065a2.822,2.822,0,0,1,2.557,2.557,2.279,2.279,0,0,1-1.975,2.492H1.975A2.279,2.279,0,0,1,0,2.492,2.279,2.279,0,0,1,1.975,0Z" transform="translate(83.846 98.279) rotate(135)"/>
  </g>
</svg>
