<svg xmlns="http://www.w3.org/2000/svg" width="29.617" height="32.902" viewBox="0 0 29.617 32.902">
  <defs>
    <style>
      .cls-1 {
        fill: #25474b;
      }
    </style>
  </defs>
  <path id="Path_128" data-name="Path 128" class="cls-1" d="M-2723.852,16181.853v-4.795s-3.617.754-5.761-1.27a46.894,46.894,0,0,1-4.738-5.709s.968-.54,2.606.471a23.408,23.408,0,0,1,3.925,3.69h4.2a4.811,4.811,0,0,1,.308-1.769c.485-.784.9-1.367.9-1.367a16.6,16.6,0,0,1-6.062-2.112,9.7,9.7,0,0,1-3.272-4.322,24.639,24.639,0,0,1-.51-3.916,7.068,7.068,0,0,1,1.006-4.337c.992-1.542,1.285-1.889,1.285-1.889s-1.186-4.49.342-5.371,5.486,1.933,5.486,1.933a28.306,28.306,0,0,1,5.384-.62,33.9,33.9,0,0,1,5.693.536s4.025-2.825,5.7-1.853.394,5.114.394,5.114a11.874,11.874,0,0,1,1.572,2.845,14.356,14.356,0,0,1,.658,3.367s.166,4.327-2.23,7.022a7.581,7.581,0,0,1-3.363,2.419,34.177,34.177,0,0,1-4.152,1.184,9.03,9.03,0,0,1,.926,1.367,3.668,3.668,0,0,1,.376,1.2l.122,8.184Z" transform="translate(2734.351 -16148.949)"/>
</svg>
