<svg xmlns="http://www.w3.org/2000/svg" viewBox="0 0 1652.536 1080.504">
  <defs>
    <style>
      .cls-1 {
        fill: #fff;
        opacity: 0.997;
      }

      .cls-2 {
        fill: #edf0f4;
        stroke: #edf0f4;
        stroke-linejoin: bevel;
      }

      .cls-3, .cls-4 {
        fill: none;
        stroke-width: 2px;
      }

      .cls-3 {
        stroke: #2b319b;
      }

      .cls-4 {
        stroke: #ffd400;
      }

      .cls-5 {
        fill: #ff5a5f;
      }

      .cls-6 {
        fill: #282324;
      }

      .cls-6, .cls-7 {
        font-size: 15px;
        font-family: 'Montserrat', sans-serif;
        font-weight: 700;
      }

      .cls-7 {
        fill: #f7f7f7;
      }
    </style>
  </defs>
  <g id="Group_158" data-name="Group 158" transform="translate(-321.782 -22.496)">
    <path id="Map" class="cls-1" d="M-5782.171,11715.707s3.113,11.51,6.251,14.4c2.049,1.891,6.814.381,11.71-2.021,2.159-1.061,3.5-2.8,6.025-3.617a4.731,4.731,0,0,1,2.222,0c1.271.3,2.931,1.482,4.056,1.1,4-3.2,3.773-4.227,3.773-4.227l2.023-1.676,3.342-1.367a30.885,30.885,0,0,0,6.076-.205c.415-.057,1.162-.7,1.916-.908a26.976,26.976,0,0,0,2.83-.562c1.574-.541,9.491-.266,9.491-.266l3.531-2.973,4.16-5.49,2.085-.467,1.089,1.1,2.564-.307,7.4-18.389,2.151-4.977-8.192-13.447v-3.068l2.3-2.85,5.306-2.881,3.142-3.311s13.06-6.789,26.753-.93,24.84,17.717,24.84,17.717l3.066-.582h10.027l10.135,1.117,4.65,2.131,4.6,4.234,3.846-.314s13.959,7.232,23.755,17.68c7.875,6.607,13.392,13.693,15.427,18.795a6.773,6.773,0,0,1,0,5.311l.278,1.672,3.091,1.76a85.334,85.334,0,0,0,1.736,12.4,64.9,64.9,0,0,0,3.81,11.342l-2.436,6.48-1.012,2.574.351,2.355,1.552,1.367,1.545,5.4,2.2,2.041v2.033l2.043,1.467v3.771l2.091,1.512v1.883l7.638,2.824,6.747,2.447.421,8.469s4.1,2.254,8.157,1.641a15.241,15.241,0,0,0,6.989-3.174v-10.633l8.993-12.24.473-3.7a53.614,53.614,0,0,1,6.287-6.775,26.434,26.434,0,0,1,7.944-4.494l2.343.307h2.3l2.177-1.039,3.654-.141a17.677,17.677,0,0,1,3.263,1.473c.44.254.844,1.09,1.634,1.555a4.662,4.662,0,0,0,3.038.279c3.008-.574,4.1-5.6,4.1-5.6l2-4.949-.769-9.781,4.292-4.566,8.917-.93.815-9.07,3.494-5.547v-4.6l-1.687-3-.4-7.32-6.518-2.387.517-13.826-4.071.2-1.339-1.961h-3.253v.6h-4.709v-1.953l.976-.682h3.565v-2.346l-9.686-3.924h-1.581a5.5,5.5,0,0,1,.55-2.969,9.3,9.3,0,0,1,2.825-3.07l2.727,1.25h5.333l2.66-4.244,1.932-5.453a37.479,37.479,0,0,1-.408-7.766,23.159,23.159,0,0,1,1.563-6.531l4.171-5.207v-4.883l9.093-6.131h2.42l3.585,1.279,2.445-2.578-5.132-9.057h-2.477l-2.147,3.256h-4.528l-4.106-7.895-7.307-3.307v-2.221h4.1l3.619,2.221,5.041,4.889h5.569s5.791-5.906,5.108-10.316a4.9,4.9,0,0,0-2.872-3.574c-2.171-1.051-5.508-.551-5.508-.551l-3.943-1.465-2.73-2.09v-1.359h1.7s5.333,3.332,7.865,2.072c1.591-.809,1.577-4.061.2-6.861a10.566,10.566,0,0,0-3.1-3.344v-2.2a51.737,51.737,0,0,0,4.843-5.721c3.177-3.027,6.99-6.211,6.99-6.211h1.879s2.57,16.186,3.6,21.23c1.74,4.594,6.2-3.217,6.2-3.217v3.811l-2.463,4.721-.507,3.549,1.421.09v1.875l-1.759.623v2.348h1.759v2l-2.567.162-.918,3.584-.394,6.182h1.6l1.816-1.258h5.744l4.036-9.062h1.606l.235,2.379h.959v2.184l-2.8,2.449-1.65,3.893-1.1,2.885h-4.128l-2.444,6.443,4.749,4.275,3.877-7.01h2.539l.423-1.342h3.527a5.267,5.267,0,0,0,2.4-2.721,7.532,7.532,0,0,0,.6-3.709l6.265-11.557v-7.26l-2.35-2.984v-2.27l3.428-3.473s4.637-8.777,9.539-12.426a12.815,12.815,0,0,1,10.345-2.133l3.988,5.084h3.334s1.16-1.008,1.765-1.691c1.61-1.82,1.34-5.592,1.34-5.592l10.243-12.473,11.188-11.773,5.877-2.465h6.5l5.7,4.217h6.034l2.795,6.813a6.693,6.693,0,0,0,3.285,2.482,3.809,3.809,0,0,0,3.194-.943l.574-7.43,2.617-3.623h3.8l1.766-1.516-.6-4.43,2.828-6.709,3.737-5.762v-2.5l-6.274-4.43v-10.379l2.684-4.744-2.9-3.383v-2.617l8.921-9.891,5.273-.643v-6.789l2.975-3.48-.365-7.826s-2.589-5.01,4.428-7.562c2.657-1.123,4.345-1.914,6.531-2.934,3.845-1.795,6.791-3.318,6.791-3.318h8.1l2.307,6.873.375,4.449,2.968,2.24h4.076s2.458,2.225,4.29,1.262c.572-.3.594-1.314,1.119-2.393a22.916,22.916,0,0,0,1.221-3.162l4.168-.973,2.123-1.236h9.727l7.506.758,5.862-3.865,1.105,2.521,1.5,1.041,1.71-.455,4.719-4.9,4.474-.336,16.219,4.422h5.468a29.05,29.05,0,0,1,8.141-3.4c4.437-1.021,8.849-1.574,8.849-1.574l4.715-5.1,6.536,2.828h2.84l3.4-4.26,13.572-13.287s6.241-2.605,16.741-3.482c14.935-1.246,38.056-.5,54.79,3.482,11.717,3.357,15.135,9.383,23.022,14.631,1.694,1.127,4.128,3.2,5.856,4.43a77.019,77.019,0,0,0,11.708,7.168l-2.017,3.029v4.684l4.12-.258,4.952-2.457,8.6-.252v-2.746l-5.022-7.24v-2.693a24.053,24.053,0,0,1,6.5-6.561,45.319,45.319,0,0,1,10.473-4.508V11447s-2.05-4.828-5.841-4.937-6.81,3.289-6.81,3.289l-.67,2.619s-3.392,2.9-5.613,3.262a3.4,3.4,0,0,1-3.283-1.088l7.012-2.742s.835-2.508-.157-3.842-3.812-1.5-3.812-1.5l-3.451,1.256h-3.389a12.53,12.53,0,0,0-2.89-4.268,8.378,8.378,0,0,0-4.529-1.576v-.943l4.695-2.92,5.677-.162,2.141-.609h3.621l2.3,1.145h2.348v-6.93l-3.173-2.9-.492-4.281-2.617-1.307-3.69-6.742v-4.5l2.073-4.441v-6.723l-2.51-3.885v-5.178l1.42-2.191h8.481l-3.632,15.992s-4.156,4.453-2.142,7.676,7.34,3.254,7.34,3.254l2.06,12.693-.565,12.012,2.035,2.52,3.312.211,5.05-2.559,2.487,3.73-2.221,2.295.461,2.053,4.533-2.053,2.25-1.7,2.972-.344,4.9-1.779h2.575l6.745.811,4.746,6.471-1.932.551-3.722-3.924h-3.6l-.43,2.779,2.146,4.4.545,4.518-2.692,2.879v4.756l2.146,3.244.545,9.77,6.591,8.424,3.44-.389,1.987-1.658h8.731l5.487,8.734-1.621,1.605-.356,1.785,19.433,9.236,4.157-.359,4.181-2.479,4.162-5.348,3.663,1.447,2.724-.311,3-3.477h9.673l3.393.656h4s6.4-2.848,9.269-8.586,2.253-13.908,2.253-13.908l3.012-3.172v14.174l-7.3,11.492.854,5.486,3.432,2.934.78,3.729,4.843,5.146s14.1,6.645,21.249,14.518a26.178,26.178,0,0,1,6.942,16.717l1.55,2.332,3.874,3.184v1.061h-5.424v3.3l9.438,5.689,19.313,15.656,5.949.674,4.672,3.109h3.666l3.248-6.533,3.628-5.984,5.622,4.193a23.574,23.574,0,0,1,9.956,4.467,38.152,38.152,0,0,1,4.96,5.363l5.582,5.932h2.614l9.482-6.307,10.058-8.494,4.439-.9h13.12v-3.369l-2.229-2.426-2.643-1.3v-1.58l3.233-1.174,1.639-1.918V11532.4s.151-17.348,9.792-32.875c8.749-14.33,25.2-24.449,25.2-24.449l11.834-7.357,1.594-5.4h3.34l1.237,2.311h2.422l1.694-2.311,5.6-6.4,2.977-2.426,1.022-1.961.606-4.615-1.628-2.043-.749-2.492,1.771-2.9v-9.172l4.842-4.918,5.885-2.787v-1.631l-4.382-3.383.722-1.648,5.554-2.607,4.018-5.285-.516-2.633-6.883-.229-5.943,2.574-2.437-.346-1.988-4.344a11.96,11.96,0,0,0-3.863-2.617c-2.328-1-5.893-1.6-7.185-2.664-2.344-1.936-6.115-11.189-6.115-11.189l-3.653-.3v-3.285l3.653-1.15-.312-4.652-1.218-.848v-8.662l1.011-2.893,5.723-5.959,2.7-4.412,1.854-1.318,3.676,2.453,3.669,1.59h3.4l2.493-1.59,3.966-1.391,5.711-.705,2.857-2.615v-1.762l-2.164-.779-2.487-3.793-4.214-3.01,1.54-2.48-2.207-2.672,1.2-4.424s-6.456-11.895,0-35.646c2.314-9.355,6.165-15.344,9.824-23.879,3.093-7.215,9.254-10.928,12.092-17.176a50.227,50.227,0,0,0,3.91-18.307l11.5-16.711v-5.906h-2.994v3.133l-3.128,2.773h-2.286l-1.36-4.959.748-13.928-4.172-19.646-8.26-12.877-.985-8.537-5.219-9.174.794-4.037h4.425l4.358,10.578,1.021,2,2.449-.711,1.417-2.8h1.688v4.146a22.425,22.425,0,0,0,1.736,5.451c1.339,2.768,3.7,5.881,4.753,9.322,1.865,6.068.972,9.5.972,9.5l11.1,16.021-.461,3.432-2.664,2.707-3.934,2.148.484,1.912,5.14,3.545,4.938,1.912,7.057,1.807,4.75,2.188,3.3-.467,4.787-2.307,4.431,1.137,5.3-2.357a38.192,38.192,0,0,1,7.254-7.369,88.39,88.39,0,0,1,11.293-7.072l.471-19.1h1.964l1.5,15.578,3.8-2.9,5.527-8.959,1.141-6.852h4.41s5.737-10.736,13.712-16.225,18.189-5.732,18.189-5.732l7.794-2.34v-436.387l-518.888.365-3.782-1.33a34.994,34.994,0,0,1-4.174,11.055,32.068,32.068,0,0,1-8.1,8.17l-8.288,1.041v4.643l3.1,1.523,5.191,4.105,1.134,11.736,3.628,3.865-2.1,8.416,3.235,18.672s.23,5.68,2.768,8.721,7.383,3.443,7.383,3.443l5.849,3.482,3.747-1.229,2.962-4.2,4.253-2.375,4.752-1.785,1.32-4h13.373l6.655-5.379,7.085-3.875,20.372,13.84v2.254l-21.667-8.131-2.132,1.291a5.772,5.772,0,0,1-3.658,4.586c-3.283,1.146-9.473,0-9.473,0l-16.626,10.844-2,14.23-4.13,11.549-3.288,1.455v-3.639l2.206-3.988-.6-8.5-4.546-1.107-1.99,2.656-2.457-.705-1.847-3.469,1.847-5.627-4.858-.561-1.408,1.143s-3.181-.73-6.615,4.525-6.51,16.311-6.51,16.311l-5.044,2.965-4.889,6.336-3.946,1.129s-4.729,4.914-10.762,11.842c-5.962,6.848-10.7,15.17-19.938,17.588-6.114,1.6-17.068,1.783-23.336-1.137-4.607-4.8-6.854-9.521-10.105-12.662a22.006,22.006,0,0,0-6.326-4.326l-7.49.537h-8.182l-2.146-.875-2.332-.373-7.619-4.639a150.607,150.607,0,0,1-16.2.953,101.182,101.182,0,0,1-14.343-1.2l-.629,9.535-1.966,1.963v4.963l1.1,2.816v17.344l-1.5,17.156-2.574,6.092-1.5,11.855-2.274,1.828v2.344l3.771,2.467-.454,2.176-5.515,5.535-5.21,9.1-1.6,12.16.649,5.832,1.489,1.619-.54,6.635-1.6.387-.341,2.814.99,1.266-2.13,5.6-.483,22.811.959,31.793-.959,14.326-2.207,12.754a20.125,20.125,0,0,1-5.162,5.5c-3.324,2.545-8.918,5.311-12,9.018a31.615,31.615,0,0,0-6.993,14.555l-4.822,1.27-3.027,2.389v2.211l.692,2.85-2.416,1.982-4.194,1.49-1.028,2.148,1.736,4.008v4.068l-1.736,6.037-4.357,6.029-10.5,7.68-1.187,3.777,1.188,2.045v2.084l-8.59,1.625-2.958,5.389-2.989,3.238-7.835,1-1.393,4.162-2.08,2.895h-2.47l-2.117-1.293-2.033.645v3.094l-1.554,1.053h-6.337v3.279l1.562.889-.944,4.572-.874,1.133v3.318l-.987,1.182a8.08,8.08,0,0,0-4.115,2.229,11.147,11.147,0,0,0-2.146,5.053s-1.021,16.82-7.172,27.051-17.436,13.869-17.436,13.869l-4.548,5.248-4.376.58-2.209-3.4h-1.562l-3.716,3.111a10.747,10.747,0,0,0-5.8,2.535,33.506,33.506,0,0,0-5.625,7.025h-3.394l-2.284-1.727-8.3-.6-.5-2.139h-3.521v-3.734h-2.274l-7.473,4.744,2.684,2.734,3.852,1.525,3.926,3.916v3.463l-3.926,1.359-2.519,3.271v17.01l8.9,11.309v3.455l-2.458,1.678-4.444,1.229-2,4.932h-2.324l-1.021-10.129v-11.875l-3.159-3.441-4.138-1.475v-3.543l2.216-5.271-1.188-2.945h-3.717l-2.436,4.328-2.677,3.127-7.087,6.982-7.4,3.568-7.35-1.928-8.063.6-2.233-1.219-6.2,3.934v2.063l1.011,1.479v36.166l-3.5,3.666v2.232l2.487,1.066-2.487,24.992-3.281,20.924a41.3,41.3,0,0,1-6.86,10.854,61.385,61.385,0,0,1-11.2,9.2l-3.148-2.279h-2.276s.378,5.752-5.961,9.887-19.052,6.654-19.052,6.654l-1.734,3.777,1.734,3.393s1.24,2.928.406,5.023-3.533,2.715-3.533,2.715v4.313l.606,2.043-1.86,1.848,1.86,2.334-8.008,29.18-5.042,3.8-1.25,5.014-2.833.66-2.452,4.773-5.546,6.592-16.2.527-1.194,8.541-2.778,3.713-7.912,22.547-5.515,6.059-3.81-.568-6.354,5.031v3.764l-8.38,5.625s-1.563,2.158-5.176,6.357c-1.911,2.227-4.169,5.988-9.081,8.561-12.725,6.664-22.016,4.77-22.016,4.77l-2.667-4.77-9.3,1.4.5,2.035-2.2,1.84s1.261,4.951-2.373,12.721-12.165,18.354-12.165,18.354l-1.535,19.066-2.624,3.738h-.979v-2.785l.979-11.535-5.233-4.361-5.87-1.742-1.635-5.8-6.649-8.992v-2.178l-2.207,2.178-4.462-.49-3.231-1.687h-4.789l-9.356,1.688-7.336,1.525-3.275,1.078-5.608,4.182v3.682l-10.162,5.439-9.7,8.092h-3.762l-1.655,2.486-1.781,4.889-4.995,3.377-3.417,5.6a36.248,36.248,0,0,1-10.6,4.094,83,83,0,0,1-14.542,1.391l1.2,1.373,2.878,1.973h-6.11l-5.549,7.016-4.1,14.594-4.15,2.447.549,4.578-2.892,2.295.392,2.236,1.073.986v1.789s-1.8,3.336-1.961,11.6c.162,5.373,1.734,14.336,1.961,21.078a43.008,43.008,0,0,1-.782,11.039,10.589,10.589,0,0,0-2.413,10.611c1.633,2.629,4.446,3.43,6.777,4.457A7.1,7.1,0,0,1-5782.171,11715.707Z" transform="translate(6114 -10695.001)"/>
    <path id="Devon" class="cls-2" d="M-5236.535,10926.711l10.468-2.887h19.2v4.669h5.659l14.957,13.635,4.291,20.82,12.608,4.229v11.623l-7.772,18.348-4.836,7.161v25.9l-20.13,10.634,6,11.283h9.842l9.126,15.3,10.017,5.757v-10.027l13.365-3.605,5.175,7.876-5.175,5.757,2.052,5.015,1.163,3.993-3.215,2.3,11,33.551-3.9,5.76v8.254l7.315,4.269,3.818,10.455.784,15.816,6.215,8.776v11.918l7,5.71,8.26,1.966,1.336,5.887-3.888,29.711-3.194,4.92v6.237H-5111l6.321,9.19V11235.8l7.758,6.9-4.247,5.328,7.757,18.789-4.164,11.78,2.926,2.785,6.518-9.008,7.18,8.078h12.37l1.605,3.051-.886,5.546,5.577,17.524,6.443,1.395v4.678l-3.19,3v2.948h-3.253l-9.275-2.948-2.639,5.736,2.639,10.962-10.689,9.533,2.025,9.985,9.894-3.086-3.187-6.9h3.187l2.468,12.082.886,5.2,4.691,3.256-5.577,15.147.275,7.211,8.563.253-3.528,15.947s-3.527,4.63-2.318,7.372,7.52,3.625,7.52,3.625l1.957,12.233-.4,11.968,1.75,2.728,3.382.352,5.094-2.511,2.429,3.614-2.125,2.619.631,1.589,3.715-1.589,2.976-2.034,2.76-.254,5.418-1.786,5.341.352,3.736.679,4.455,6.156-1.6.645-3.9-4h-3.457l-.542,2.993,1.977,4.023.715,4.711-2.692,2.914v4.738l2.149,3.437.542,9.46,6.527,8.492,3.413-.256,2.015-1.867h8.6l5.7,8.684-1.76,1.93-.281,1.679,19.3,9.255,4.317-.452,4.282-2.534,4.189-5.207,2.71,1.232,1.154.192,1.936-.192,1.259-.989,2.157-2.605h9.816l3.388.681h3.614s6.774-2.963,9.66-8.808,2.156-13.742,2.156-13.742l2.905-2.893.226,13.771-7.469,11.672.929,5.517,3.25,2.789.974,3.931,4.8,5.141a63.132,63.132,0,0,1,20.921,14.256,27.228,27.228,0,0,1,6.132,10.559c.591,2.025,1.3,6.457,1.3,6.457l1.426,2.222,3.943,3.281-.394.957h-4.975v3.435l9.342,5.568,19.312,15.686,5.77.589,4.806,3.114h3.6l3.219-6.146,3.688-6.341,5.536,4.183a21.692,21.692,0,0,1,9.774,4.181c1.962,1.429,3.531,4.053,5.538,6.11,2.67,2.734,5.317,5.475,5.317,5.475h2.65l9.819-6.612,9.635-8.248,4.581-.78h12.984v-3.27l-2.168-2.561-2.584-1.179v-1.61l3.195-1.364,1.558-1.864s-.293-5.8,0-15.709c.106-3.621-.056-8.457.413-13.434a79.811,79.811,0,0,1,2.446-12.321,50.05,50.05,0,0,1,3.812-9.96c.574-1.12,1.57-2.642,2.193-4.076,1.271-2.931,4.437-5.979,6.267-8.745,2.2-3.321,5.816-5.728,8.572-8.562,3.135-3.227,7.351-5.667,10.555-8.1,3.468-2.638,6.23-3.915,8.681-5.521,2.191-1.436,3.909-2.413,3.909-2.413l1.6-5.288h3.3l1.354,2.263h2.418l2.979-4.143,3.908-4.192,3.252-2.879,1.128-1.882.6-4.569-1.733-2.043-.656-2.663,1.784-2.761v-9.147l4.5-4.741,6.253-3.106v-1.44l-4.393-3.394.834-1.871,5.568-2.551,3.8-5.332-.6-2.538-6.715-.237-4.228,1.75-1.666.824-2.616-.289-1.968-4.379-3.51-2.5-7.014-2.225-2.909-3.562-3.76-8.146-3.429-.366-.193-3.047,3.622-1.384-.186-4.2-1.279-1.389v-8.464l.951-2.883,5.808-5.95,2.682-4.57,1.672-1.2,3.294,2.092,4.342,1.749h3.257l2.628-1.479,4.027-1.324,5.6-.8,2.855-2.607-.165-1.8-1.863-.461-2.912-4.147-3.969-2.954,1.52-2.291-2.159-2.722,1.088-4.278s-5.563-11.307-1.088-31.533a81.241,81.241,0,0,1,3.27-11.148c.66-1.736,1.589-3.366,2.389-5.288,1.121-2.694,2.294-5.084,3.506-7.7a74.808,74.808,0,0,1,3.733-7.538,32.355,32.355,0,0,1,5.012-6.239,25.492,25.492,0,0,0,6.21-10.181,57.636,57.636,0,0,0,2.559-11.044,28.573,28.573,0,0,0,.237-4.527l6.918-10.049,4.647-6.705v-5.721h-2.885v2.516l-3.011,3.205h-2.622l-1.271-5.01.8-13.9-4.1-19.316-8.364-13.032-.928-8.524-5.2-9.113.753-4.183h4.45l5.414,12.57,2.115-.675,1.643-3h1.552l.156,4.1,1.434,5.141,4.342,7.754,1.487,4.789.524,4.179-.33,2.507,11.109,16.181-.349,3.125-2.8,2.863-3.913,2.111.351,1.8,5.539,3.923,4.329,1.736,3.807,1.047,3.6.744,4.808,2.217,3.155-.486,4.908-2.249,4.3,1.055,5.379-2.327a47.279,47.279,0,0,1,7-7.035,78.134,78.134,0,0,1,11.441-7.289l.563-18.664.941-.657,1.088.421,1.533,15.087,3.714-2.7,5.6-8.936,1.193-6.923h4.425s1.423-4.324,11.318-10.575c2.234-1.412,10.2-2.813,14.117-3.689,3.38-.757,14.074-2.748,14.074-2.748h38.1l10.8-11.2s20.037,2.919,35.934,0a49.812,49.812,0,0,0,25.062-12.379l18.75-12.592,35.214,6.424,31.727,9.063s44.261,18.868,82.644,46.433c3.578,2.569,7.814,2.983,12.544,5.629a156.973,156.973,0,0,1,24.167,17.116c9.8,8.56,27.575,26.808,32.3,40.666,2.691,7.894-1.333,10.646-2.159,16.567a80.525,80.525,0,0,0,0,17.254s17.072-10.758,17.114-27.456c.009-3.631-.907-7.512-4.948-9.719-2.84-1.55-8.775-1.319-10.007-4.657-1.3-3.526-5.536-9.364-5.709-13.761-.4-10.03,6.209-19.058,7.713-22.432,6.223-13.965,21.428-13.579,21.428-13.579v-39.158l-1.053-436.744-887.7,1.247-4.456-1.247a37.206,37.206,0,0,1-1.08,3.9c-.96,2.831-2.567,7.4-6,10.659-1.438,1.365-3.2,3.36-5.168,4.314-1.229.6-2.5.5-3.979.762-2.455.452-4.246.638-4.246.638v4.582l2.876,1.449,5.349,4.307,1.012,11.611,3.69,4.026-2.033,7.677,4.133,24.889a10.9,10.9,0,0,0,3.584,4.707,13.492,13.492,0,0,0,5.64,1.758l5.648,3.487,3.987-1.216,2.885-4.218,4.18-2.312,4.81-2.012,1.421-3.74h13.069l6.757-5.407,7.264-3.91,20.358,13.906v2.223l-21.657-8.192-2.141,1.287a6.96,6.96,0,0,1-1.191,2.717,7.154,7.154,0,0,1-2.934,1.961,13.378,13.378,0,0,1-4.985.435,25.792,25.792,0,0,1-3.983-.435l-16.789,10.752-1.858,14.269-4.162,11.381-3.4,1.482v-3.479l2.353-3.978-.668-8.1-1.382-.868-3-.569-2.259,2.434-1.8-.357-.937-.99-1.559-2.647,1.849-5.658-4.6-.616-1.435,1.221s-3.819-.486-7.087,4.777-6.116,15.826-6.116,15.826l-5.028,3-4.813,6.476-3.854,1.059s-5.707,5.612-11.443,12.33c-3.2,3.749-6.412,8.544-10.48,12.141a25.225,25.225,0,0,1-13.033,5.839c-5.237.825-13.179.395-18.546-1.623a10.361,10.361,0,0,1-3.031-2.767c-2.217-2.517-4.149-6.209-6.37-8.532-4.479-4.683-7.512-5.927-7.512-5.927l-15.659.621-2.314-1.119-2.451-.286-7.858-4.788a95.227,95.227,0,0,1-14.389,1.185,129.676,129.676,0,0,1-15.8-1.185l-.74,9.309-2.161,2.18v4.5l1.254,3.146v17.51l-.9,9.57-.69,7.4-2.437,5.94-.3,2.1-1.145,9.55-2.538,2.215.379,2.615Z" transform="translate(6152.337 -10694.994)"/>
    <g id="Small_paths" data-name="Small paths" transform="translate(432.43 396.693)">
      <path id="Path_146" data-name="Path 146" class="cls-3" d="M-4995.845,11098.96h66.392s39.564,3.506,68.085-4.209c11.951-3.231,17.611-10.645,26.252-16.095,11.417-7.2,17.638-11.209,17.638-11.209" transform="translate(5736.812 -11067.447)"/>
      <path id="Path_147" data-name="Path 147" class="cls-3" d="M-4779.1,11104.121s44.78-8.661,69.579,10.312,26.339,64.657,26.339,64.657" transform="translate(5751.847 -11065.04)"/>
      <path id="Path_148" data-name="Path 148" class="cls-3" d="M-4779.459,11334.46s12.862-16.8,6.925-33.984c-3.3-9.536-14.8-16.7-22.488-23.633a34.7,34.7,0,0,1-8.189-11.118" transform="translate(5750.175 -11053.693)"/>
      <path id="Path_149" data-name="Path 149" class="cls-3" d="M-5057.913,11275.98v14.694s9.831,8.457,13.885,15.407,2.328,12.393,2.328,12.393-14.041,36.6-8.011,59.248,30.808,22.36,30.808,22.36" transform="translate(5732.507 -11052.98)"/>
      <path id="Path_150" data-name="Path 150" class="cls-3" d="M-5207.78,11338.153l-2.108,14.6-9.3,9.991.725,40.823" transform="translate(5721.32 -11048.669)"/>
      <path id="Path_151" data-name="Path 151" class="cls-3" d="M-5469.156,11356.509l49.7,1.794s19.511-8,44.154,1.52c9.29,3.589,12.258,12.735,21.383,18.513,14.361,9.093,30.541,17.963,30.541,17.963" transform="translate(5703.979 -11047.488)"/>
      <path id="Path_152" data-name="Path 152" class="cls-3" d="M-5496.395,11485.154a85.485,85.485,0,0,0-17.771,14.705c-8.3,9.431-14.092,22.286-13.628,35.742.315,9.148,2.673,21.991,8.4,29.95,9.582,13.327,24.8,19.167,24.8,19.167" transform="translate(5699.91 -11038.471)"/>
      <path id="Path_153" data-name="Path 153" class="cls-3" d="M-5688.747,11522s15.318,13.51,24.074,28.306a92.87,92.87,0,0,1,10.949,30.877" transform="translate(5688.747 -11035.916)"/>
    </g>
    <path id="Main_Path" data-name="Main Path" class="cls-4" d="M-5691.6,11632.334a81.779,81.779,0,0,0,16.227,1.41c9.929,0,21.872-3.663,21.872-3.663s13.031,2.6,36.091-8.016c6.888-3.172,11.64-9.86,21.569-15.8,7.488-4.479,14.278-12.24,23.123-18.155,9.822-6.569,21.959-16.673,32.148-23.522,12.327-8.287,20.836-12.228,30.129-18.074,11.744-7.39,22.422-15.405,22.422-15.405l24.052-1.9,45.555-13.246s46.4-12.986,73.542-34.038,33.951-49.343,33.951-49.343l38.3-31.043s27.437-19.877,52.194-26.83c31.29-11.094,46.153-7.809,46.153-7.809l21.744,5.016a190.712,190.712,0,0,1,30.787,9.7,179.822,179.822,0,0,1,27.746,15.355s14.548,14.272,45.006,22.183,74.735,13.432,74.735,13.432,19.5-21.612,60.046-38.786c11.874-5.028,28.919-12.488,45.993-16.252,11.76-2.592,23.712-1.717,33.356-4.02,22.046-5.265,31.377-9.975,31.377-9.975s16.781-15.771,33.651-33.437,34.053-37.962,34.053-37.962a122.089,122.089,0,0,1,25.781-18.424c14.524-7.491,32.317-11.54,32.317-11.54s8.775-8.77,12.309-18.581,3.29-14.879,1.845-18.6-4.509-7.419-9.949-11.024a49.213,49.213,0,0,0-11.831-5.453s-16.2-17.249-24.692-37.066-9.265-42.207-9.265-42.207-4.444-21.385-17.621-32.984-34.119-11.146-34.119-11.146-38.307,5.623-61.177-13.919-28.334-63.169-28.334-63.169a270.741,270.741,0,0,0-18.387-27.556,222.99,222.99,0,0,0-21.054-23.085s-24.394-33.692-37.376-70.15-12.442-75.448-12.442-75.448" transform="translate(6120.98 -10688.487)"/>
    <g id="Circles" transform="translate(423.605 114.972)">
      <circle id="Ellipse_2" data-name="Ellipse 2" class="cls-5" cx="7.486" cy="7.486" r="7.486" transform="translate(0 760.32)"/>
      <circle id="Ellipse_3" data-name="Ellipse 3" class="cls-5" cx="7.486" cy="7.486" r="7.486" transform="translate(-6.642 820.135)"/>
      <circle id="Ellipse_4" data-name="Ellipse 4" class="cls-5" cx="7.486" cy="7.486" r="7.486" transform="translate(206.388 819.135)"/>
      <circle id="Ellipse_5" data-name="Ellipse 5" class="cls-5" cx="7.486" cy="7.486" r="7.486" transform="translate(203.18 719.684)"/>
      <circle id="Ellipse_6" data-name="Ellipse 6" class="cls-5" cx="7.486" cy="7.486" r="7.486" transform="translate(230.983 581.736)"/>
      <circle id="Ellipse_7" data-name="Ellipse 7" class="cls-5" cx="7.486" cy="7.486" r="7.486" transform="translate(381.764 623.441)"/>
      <circle id="Ellipse_8" data-name="Ellipse 8" class="cls-5" cx="7.486" cy="7.486" r="7.486" transform="translate(505.811 628.788)"/>
      <circle id="Ellipse_9" data-name="Ellipse 9" class="cls-5" cx="7.486" cy="7.486" r="7.486" transform="translate(515.435 560.349)"/>
      <circle id="Ellipse_10" data-name="Ellipse 10" class="cls-5" cx="7.486" cy="7.486" r="7.486" transform="translate(673.702 494.048)"/>
      <circle id="Ellipse_16" data-name="Ellipse 16" class="cls-5" cx="7.486" cy="7.486" r="7.486" transform="translate(739.702 306.048)"/>
      <circle id="Ellipse_12" data-name="Ellipse 12" class="cls-5" cx="7.486" cy="7.486" r="7.486" transform="translate(972.055 555.002)"/>
      <circle id="Ellipse_15" data-name="Ellipse 15" class="cls-5" cx="7.486" cy="7.486" r="7.486" transform="translate(738.933)"/>
      <circle id="Ellipse_13" data-name="Ellipse 13" class="cls-5" cx="7.486" cy="7.486" r="7.486" transform="translate(972.055 315.463)"/>
      <circle id="Ellipse_14" data-name="Ellipse 14" class="cls-5" cx="7.486" cy="7.486" r="7.486" transform="translate(1070.437 389.25)"/>
      <circle id="Ellipse_11" data-name="Ellipse 11" class="cls-5" cx="7.486" cy="7.486" r="7.486" transform="translate(715.407 621.302)"/>
    </g>
    <g id="Names" transform="translate(335.917 105.348)">
      <text id="Exeter" class="cls-6" transform="translate(980.61 325.088)"><tspan x="14.419" y="15">Exeter</tspan></text>
      <text id="Barnstaple" class="cls-6" transform="translate(851.217)"><tspan x="0" y="15">Barnstaple</tspan></text>
      <text id="Paignton" class="cls-6" transform="translate(983.194 575.21)"><tspan x="0" y="15">Paignton</tspan></text>
      <text id="Plymouth" class="cls-6" transform="translate(836.245 624.511)"><tspan x="0" y="15">Plymouth</tspan></text>
      <text id="Gunnislake" class="cls-6" transform="translate(784.916 490.84)"><tspan x="0" y="15">Gunnislake</tspan></text>
      <text id="Okehampton" class="cls-6" transform="translate(700.436 311.186)"><tspan x="0" y="15">Okehampton</tspan></text>
      <text id="Exmouth" class="cls-7" transform="translate(1165.096 421.943)"><tspan x="0" y="15">Exmouth</tspan></text>
      <text id="Liskeard" class="cls-6" transform="translate(618.302 553.418)"><tspan x="0" y="15">Liskeard</tspan></text>
      <text id="Looe" class="cls-6" transform="translate(609.678 620.69)"><tspan x="0" y="15">Looe</tspan></text>
      <text id="Par" class="cls-6" transform="translate(492.325 628.511)"><tspan x="0" y="15">Par</tspan></text>
      <text id="Newquay" class="cls-7" transform="translate(222.983 572.221)"><tspan x="0" y="15">Newquay</tspan></text>
      <text id="Truro" class="cls-6" transform="translate(303.88 708.892)"><tspan x="0" y="15">Truro</tspan></text>
      <text id="St_Erth" data-name="St Erth" class="cls-6" transform="translate(142.434 840.69)"><tspan x="0" y="15">St Erth</tspan></text>
      <text id="St_Ives" data-name="St Ives" class="cls-7" transform="translate(24.873 748.459)"><tspan x="0" y="15">St Ives</tspan></text>
      <text id="Penzance" class="cls-6" transform="translate(4 818.344)"><tspan x="0" y="15">Penzance</tspan></text>
      <text id="Falmouth_Docks" data-name="Falmouth Docks" class="cls-7" transform="translate(318.157 840.344)"><tspan x="0" y="15">Falmouth Docks</tspan></text>
    </g>
  </g>
</svg>
