<svg xmlns="http://www.w3.org/2000/svg" viewBox="0 0 1539.818 973.996">
  <defs>
    <style>
      .cls-1 {
        opacity: 0.496;
      }

      .cls-2 {
        fill: #fff;
        opacity: 0.997;
      }

      .cls-3 {
        fill: #edf0f4;
        stroke: #edf0f4;
        stroke-linejoin: bevel;
      }

      .cls-4, .cls-5, .cls-6 {
        fill: none;
        stroke-width: 2px;
      }

      .cls-4, .cls-5 {
        stroke: #2b319b;
      }

      .cls-4, .cls-6 {
        stroke-linecap: round;
      }

      .cls-6 {
        stroke: #ffd400;
      }
    </style>
  </defs>
  <g id="map" class="cls-1" transform="translate(-321.782 -17.438)">
    <path id="Map-2" data-name="Map" class="cls-2" d="M-5783.209,11612.642s2.792,10.32,5.605,12.916c1.837,1.7,6.11.342,10.5-1.812,1.937-.951,3.142-2.508,5.4-3.243a4.229,4.229,0,0,1,1.993,0c1.139.27,2.628,1.329,3.637.987,3.589-2.872,3.384-3.79,3.384-3.79l1.813-1.5,3-1.226a27.668,27.668,0,0,0,5.448-.184c.372-.051,1.042-.624,1.718-.814a24.017,24.017,0,0,0,2.538-.5c1.411-.484,8.511-.238,8.511-.238l3.166-2.665,3.73-4.923,1.87-.419.976.982,2.3-.275,6.632-16.489,1.929-4.462-7.346-12.059v-2.751l2.066-2.556,4.758-2.583,2.817-2.969s11.71-6.088,23.989-.834,22.275,15.887,22.275,15.887l2.749-.521h8.991l9.088,1,4.17,1.91,4.12,3.8,3.449-.282s12.518,6.485,21.3,15.854c7.062,5.925,12.009,12.278,13.834,16.854a6.07,6.07,0,0,1,0,4.762l.249,1.5,2.772,1.578a76.482,76.482,0,0,0,1.557,11.12,58.182,58.182,0,0,0,3.416,10.17l-2.185,5.811-.907,2.309.314,2.112,1.392,1.226,1.386,4.84,1.974,1.83v1.823l1.833,1.315v3.382l1.875,1.355v1.688l6.849,2.532,6.051,2.194.377,7.594a13.288,13.288,0,0,0,7.314,1.472,13.662,13.662,0,0,0,6.267-2.847v-9.534l8.063-10.976.424-3.313a48.066,48.066,0,0,1,5.638-6.076,23.7,23.7,0,0,1,7.124-4.029l2.1.274h2.063l1.952-.932,3.276-.126a15.855,15.855,0,0,1,2.926,1.32c.4.228.758.978,1.466,1.395a4.179,4.179,0,0,0,2.725.25c2.7-.515,3.672-5.024,3.672-5.024l1.791-4.438-.688-8.771,3.848-4.095,8-.834.731-8.133,3.133-4.975v-4.124l-1.513-2.687-.356-6.564-5.845-2.14.463-12.4-3.65.177-1.2-1.759h-2.917v.536h-4.223v-1.751l.875-.611h3.2v-2.1l-8.686-3.519h-1.418a4.929,4.929,0,0,1,.494-2.662,8.337,8.337,0,0,1,2.533-2.753l2.445,1.121h4.781l2.385-3.806,1.733-4.891a33.611,33.611,0,0,1-.366-6.963,20.76,20.76,0,0,1,1.4-5.856l3.74-4.67v-4.378l8.153-5.5h2.171l3.215,1.147,2.193-2.312-4.6-8.121h-2.221l-1.926,2.919h-4.061l-3.682-7.079-6.553-2.965v-1.991h3.678l3.245,1.991,4.52,4.384h4.994s5.192-5.3,4.58-9.251a4.388,4.388,0,0,0-2.575-3.205,10.167,10.167,0,0,0-4.938-.494l-3.536-1.313-2.448-1.874v-1.219h1.524s4.782,2.988,7.053,1.858c1.427-.726,1.415-3.642.184-6.152a9.468,9.468,0,0,0-2.776-3v-1.97a46.5,46.5,0,0,0,4.343-5.13c2.849-2.715,6.269-5.569,6.269-5.569h1.685s2.3,14.514,3.225,19.037c1.56,4.119,5.556-2.885,5.556-2.885v3.417l-2.209,4.233-.454,3.183,1.273.08v1.682l-1.577.559v2.105h1.577v1.793l-2.3.146-.824,3.214-.353,5.543h1.438l1.629-1.128h5.15l3.619-8.126h1.44l.211,2.133h.86v1.958l-2.512,2.2-1.48,3.49-.987,2.587h-3.7l-2.191,5.778,4.258,3.833,3.477-6.285h2.277l.379-1.2h3.163a4.72,4.72,0,0,0,2.154-2.439,6.755,6.755,0,0,0,.537-3.326l5.618-10.363v-6.51l-2.107-2.676v-2.035l3.073-3.114s4.158-7.871,8.554-11.143a11.489,11.489,0,0,1,9.276-1.912l3.577,4.559h2.989s1.04-.9,1.583-1.517c1.443-1.632,1.2-5.014,1.2-5.014l9.185-11.185,10.032-10.558,5.271-2.21h5.824l5.108,3.781h5.41l2.506,6.108a6.006,6.006,0,0,0,2.945,2.227,3.416,3.416,0,0,0,2.864-.847l.515-6.662,2.347-3.249h3.41l1.584-1.358-.534-3.973,2.536-6.016,3.352-5.167v-2.243l-5.626-3.972v-9.308l2.406-4.254-2.6-3.033v-2.347l8-8.869,4.729-.576v-6.088l2.667-3.121-.327-7.018s-2.321-4.492,3.971-6.781c2.382-1.007,3.9-1.717,5.856-2.631,3.447-1.609,6.09-2.976,6.09-2.976h7.262l2.068,6.163.336,3.989,2.662,2.01h3.654s2.2,1.994,3.848,1.131c.513-.27.532-1.179,1-2.146a20.64,20.64,0,0,0,1.095-2.835l3.737-.873,1.9-1.108h8.722l6.731.68,5.256-3.466.992,2.261,1.34.934,1.534-.408,4.231-4.393,4.013-.3,14.544,3.965h4.9a26.05,26.05,0,0,1,7.3-3.051c3.979-.916,7.936-1.411,7.936-1.411l4.228-4.573,5.861,2.536h2.547l3.049-3.82,12.17-11.914a54.219,54.219,0,0,1,15.012-3.123c13.392-1.117,34.125-.446,49.131,3.123,10.506,3.011,13.571,8.413,20.644,13.119,1.519,1.011,3.7,2.867,5.251,3.973a69.121,69.121,0,0,0,10.5,6.428l-1.809,2.716v4.2l3.694-.231,4.44-2.2,7.712-.226v-2.463l-4.5-6.492v-2.415a21.555,21.555,0,0,1,5.828-5.883,40.647,40.647,0,0,1,9.392-4.043v-6.519s-1.839-4.329-5.238-4.427-6.106,2.949-6.106,2.949l-.6,2.349s-3.042,2.6-5.033,2.925a3.044,3.044,0,0,1-2.943-.976l6.288-2.459s.748-2.249-.142-3.445-3.418-1.343-3.418-1.343l-3.095,1.126h-3.039a11.234,11.234,0,0,0-2.591-3.827,7.518,7.518,0,0,0-4.062-1.413v-.846l4.209-2.619,5.091-.145,1.92-.547h3.246l2.063,1.026h2.105v-6.214l-2.846-2.6-.441-3.84-2.347-1.171-3.31-6.046v-4.039l1.859-3.982v-6.028l-2.251-3.483v-4.644l1.273-1.965h7.605l-3.258,14.341s-3.726,3.993-1.92,6.883,6.582,2.918,6.582,2.918l1.848,11.382-.507,10.771,1.824,2.259,2.97.189,4.527-2.295,2.23,3.346-1.991,2.058.413,1.841,4.065-1.841,2.018-1.527,2.664-.308,4.4-1.6h2.309l6.049.727,4.255,5.8-1.732.493-3.337-3.519h-3.23l-.386,2.492,1.925,3.95.489,4.051-2.414,2.581v4.265l1.925,2.909.489,8.761,5.91,7.554,3.085-.349,1.781-1.487h7.83l4.92,7.832-1.454,1.44-.319,1.6,17.426,8.282,3.728-.322,3.749-2.223,3.731-4.795,3.285,1.3,2.441-.279,2.688-3.117h8.674l3.043.589h3.587s5.736-2.554,8.312-7.7,2.021-12.472,2.021-12.472l2.7-2.845v12.71l-6.544,10.306.766,4.919,3.077,2.631.7,3.344,4.343,4.614s12.644,5.959,19.054,13.019a23.475,23.475,0,0,1,6.225,14.99l1.391,2.091,3.474,2.854v.951h-4.864v2.962l8.463,5.1,17.318,14.039,5.334.6,4.19,2.788h3.287l2.912-5.858,3.254-5.366,5.042,3.76a21.148,21.148,0,0,1,8.927,4.006,34.216,34.216,0,0,1,4.448,4.81l5,5.318h2.345l8.5-5.655,9.02-7.616,3.98-.808h11.765v-3.021l-2-2.175-2.37-1.163v-1.417l2.9-1.053,1.47-1.72v-21.642s.136-15.556,8.78-29.479c7.845-12.85,22.6-21.924,22.6-21.924l10.611-6.6,1.429-4.846h3l1.109,2.072h2.172l1.52-2.072,5.021-5.741,2.669-2.175.917-1.759.543-4.139-1.46-1.832-.671-2.234,1.588-2.6v-8.225l4.342-4.41,5.277-2.5v-1.462l-3.93-3.034.647-1.478,4.979-2.338,3.6-4.739-.463-2.361-6.172-.205-5.329,2.309-2.186-.31-1.783-3.9a10.727,10.727,0,0,0-3.463-2.347c-2.088-.894-5.285-1.435-6.443-2.389-2.1-1.736-5.483-10.034-5.483-10.034l-3.275-.268v-2.946l3.275-1.031-.279-4.172-1.092-.76v-7.768l.906-2.594,5.131-5.344,2.419-3.956,1.663-1.183,3.3,2.2,3.29,1.426h3.051l2.235-1.426,3.557-1.247,5.121-.633,2.563-2.345v-1.58l-1.94-.7-2.23-3.4-3.779-2.7,1.381-2.224-1.979-2.4,1.078-3.967s-5.789-10.666,0-31.964c2.075-8.39,5.528-13.76,8.81-21.413,2.773-6.47,8.3-9.8,10.843-15.4a45.034,45.034,0,0,0,3.506-16.416l10.316-14.984v-5.3h-2.685v2.809l-2.806,2.487h-2.05l-1.219-4.447.67-12.489-3.741-17.616-7.406-11.547-.884-7.655-4.68-8.227.712-3.62h3.968l3.908,9.485.916,1.793,2.2-.637,1.27-2.514h1.514v3.719a20.074,20.074,0,0,0,1.558,4.888c1.2,2.481,3.313,5.273,4.262,8.359,1.673,5.441.872,8.521.872,8.521l9.954,14.366-.413,3.077-2.389,2.428-3.527,1.927.434,1.714,4.609,3.18,4.429,1.714,6.327,1.62,4.259,1.962,2.963-.419,4.293-2.068,3.973,1.02,4.755-2.114a34.268,34.268,0,0,1,6.5-6.607,79.19,79.19,0,0,1,10.127-6.342l.422-17.125h1.762l1.347,13.969,3.412-2.6,4.957-8.033,1.023-6.144h3.954s5.145-9.628,12.3-14.549,16.311-5.141,16.311-5.141l6.989-2.1V10718.77l-465.291.327-3.392-1.192a31.372,31.372,0,0,1-3.743,9.912,28.741,28.741,0,0,1-7.26,7.326l-7.432.934v4.163l2.776,1.366,4.655,3.682,1.017,10.523,3.254,3.466-1.879,7.547,2.9,16.743s.206,5.094,2.482,7.82,6.62,3.088,6.62,3.088l5.245,3.122,3.359-1.1,2.656-3.765,3.814-2.13,4.261-1.6,1.184-3.587h11.992l5.967-4.823,6.354-3.476,18.268,12.411v2.021l-19.429-7.291-1.912,1.158a5.177,5.177,0,0,1-3.28,4.112c-2.943,1.027-8.494,0-8.494,0l-14.909,9.724-1.8,12.76-3.7,10.356-2.948,1.3v-3.263l1.978-3.576-.54-7.626-4.076-.993-1.785,2.382-2.2-.632-1.655-3.11,1.655-5.046-4.356-.5-1.262,1.024s-2.853-.654-5.933,4.059-5.837,14.626-5.837,14.626l-4.523,2.658-4.384,5.682-3.539,1.012s-4.24,4.407-9.649,10.619c-5.347,6.141-9.591,13.6-17.879,15.771-5.482,1.434-15.306,1.6-20.926-1.02-4.131-4.3-6.146-8.538-9.062-11.354a19.735,19.735,0,0,0-5.673-3.879l-6.716.481h-7.337l-1.925-.785-2.091-.334-6.832-4.159a135.19,135.19,0,0,1-14.524.854,90.8,90.8,0,0,1-12.861-1.079l-.564,8.55-1.763,1.761v4.45l.989,2.525v15.553l-1.347,15.384-2.309,5.463-1.342,10.631-2.039,1.639v2.1l3.381,2.212-.407,1.951-4.944,4.964-4.673,8.163-1.433,10.9.582,5.229,1.335,1.452-.484,5.949-1.433.347-.306,2.523.888,1.135-1.91,5.019-.434,20.454.86,28.509-.86,12.847-1.979,11.437a18.044,18.044,0,0,1-4.629,4.932c-2.98,2.282-8,4.762-10.759,8.086a28.363,28.363,0,0,0-6.271,13.052l-4.323,1.138-2.714,2.143v1.982l.62,2.556-2.166,1.777-3.761,1.336-.922,1.927,1.557,3.594v3.648l-1.557,5.413-3.907,5.407-9.418,6.886-1.064,3.388,1.064,1.833v1.869l-7.7,1.457-2.652,4.832-2.681,2.9-7.025.9-1.249,3.731-1.865,2.6h-2.215l-1.9-1.159-1.823.578v2.774l-1.393.943h-5.683v2.94l1.4.8-.847,4.1-.783,1.016v2.976l-.886,1.06a7.249,7.249,0,0,0-3.689,2,10,10,0,0,0-1.925,4.531s-.915,15.083-6.432,24.257-15.634,12.437-15.634,12.437l-4.079,4.706-3.924.52-1.98-3.053h-1.4l-3.333,2.79a9.638,9.638,0,0,0-5.2,2.273,30.039,30.039,0,0,0-5.044,6.3h-3.044l-2.048-1.548-7.443-.542-.45-1.917h-3.157v-3.349h-2.039l-6.7,4.254,2.407,2.452,3.454,1.367,3.521,3.512v3.105l-3.521,1.219-2.259,2.934v15.253l7.983,10.141v3.1l-2.2,1.5-3.985,1.1-1.794,4.422h-2.084l-.916-9.082v-10.648l-2.832-3.086-3.711-1.322v-3.178l1.987-4.727-1.065-2.642h-3.333l-2.184,3.882-2.4,2.8-6.354,6.261-6.639,3.2-6.591-1.729-7.23.536-2-1.093-5.561,3.527v1.849l.907,1.326v32.431l-3.137,3.287v2l2.229.956-2.229,22.411-2.942,18.762a37.042,37.042,0,0,1-6.151,9.732,55.031,55.031,0,0,1-10.042,8.253l-2.823-2.044h-2.041s.339,5.158-5.346,8.865-17.084,5.967-17.084,5.967l-1.555,3.388,1.555,3.042s1.112,2.625.364,4.5-3.168,2.435-3.168,2.435v3.866l.543,1.832-1.668,1.657,1.668,2.093-7.181,26.166-4.521,3.4-1.121,4.5-2.54.592-2.2,4.28-4.974,5.911-14.524.473-1.071,7.659-2.491,3.329-7.095,20.218-4.945,5.433-3.416-.51-5.7,4.512v3.375l-7.515,5.044s-1.4,1.936-4.642,5.7c-1.713,2-3.738,5.369-8.143,7.676-11.41,5.977-19.742,4.277-19.742,4.277l-2.392-4.277-8.337,1.258.446,1.825-1.977,1.649s1.132,4.44-2.128,11.407-10.908,16.457-10.908,16.457l-1.376,17.1-2.353,3.352h-.878v-2.5l.878-10.344-4.692-3.911-5.264-1.562-1.466-5.205-5.963-8.063v-1.953l-1.979,1.953-4-.439-2.9-1.514h-4.294l-8.391,1.514-6.578,1.367-2.937.967-5.029,3.75v3.3l-9.111,4.878-8.7,7.256h-3.373l-1.483,2.229-1.6,4.384-4.479,3.028-3.063,5.024a32.509,32.509,0,0,1-9.506,3.671,74.425,74.425,0,0,1-13.04,1.247l1.078,1.231,2.581,1.769h-5.479l-4.976,6.291-3.679,13.087-3.722,2.194.493,4.105-2.594,2.058.352,2,.962.885v1.6s-1.617,2.991-1.759,10.4c.146,4.818,1.555,12.855,1.759,18.9a38.561,38.561,0,0,1-.7,9.9,9.5,9.5,0,0,0-2.164,9.516c1.465,2.357,3.987,3.075,6.077,4A6.359,6.359,0,0,1-5783.209,11612.642Z" transform="translate(6114 -10695.001)"/>
    <path id="Devon" class="cls-3" d="M-5236.941,10905.151l9.057-2.589h16.609v4.187h4.9l12.94,12.227,3.712,18.67,10.909,3.792v10.422l-6.725,16.453-4.185,6.421v23.224l-17.415,9.535,5.188,10.118h8.516l7.9,13.722,8.666,5.162v-8.991l11.563-3.233,4.478,7.063-4.478,5.162,1.775,4.5,1.007,3.581-2.782,2.062,9.521,30.086-3.377,5.164v7.4l6.328,3.828,3.3,9.375.679,14.183,5.377,7.87v10.687l6.061,5.12,7.146,1.763,1.156,5.279-3.365,26.642-2.763,4.412v5.593h6.916l5.469,8.241v-9.96l6.712,6.188-3.674,4.777,6.711,16.849-3.6,10.563,2.531,2.5,5.64-8.077,6.212,7.244h10.7l1.389,2.735-.766,4.973,4.824,15.715,5.575,1.25v4.2l-2.76,2.688v2.644h-2.815l-8.023-2.644-2.284,5.144,2.284,9.829-9.248,8.549,1.751,8.954,8.561-2.768-2.758-6.187h2.758l2.136,10.834.766,4.664,4.059,2.92-4.824,13.582.237,6.467,7.409.227-3.054,14.3s-3.052,4.151-2,6.61,6.506,3.251,6.506,3.251l1.692,10.97-.345,10.731,1.514,2.446,2.927.315,4.407-2.252,2.1,3.241-1.838,2.349.546,1.425,3.214-1.425,2.574-1.824,2.388-.228,4.688-1.6,4.621.315,3.232.608,3.854,5.521-1.382.577-3.373-3.587h-2.99l-.469,2.685,1.71,3.607.618,4.225-2.328,2.613v4.249l1.859,3.081.469,8.483,5.647,7.614,2.953-.229,1.743-1.674h7.437l4.932,7.786-1.522,1.73-.243,1.506,16.7,8.3,3.735-.405,3.7-2.272,3.624-4.67,2.345,1.105,1,.173,1.675-.173,1.088-.887,1.867-2.337h8.493l2.931.61H-4981s5.861-2.656,8.358-7.9,1.865-12.323,1.865-12.323l2.513-2.594.2,12.349-6.462,10.466.8,4.947,2.812,2.5.843,3.524,4.152,4.609a54.44,54.44,0,0,1,18.1,12.784,24.626,24.626,0,0,1,5.306,9.468c.512,1.816,1.125,5.79,1.125,5.79l1.233,1.992,3.412,2.942-.341.857h-4.3v3.08l8.083,4.993,16.708,14.065,4.991.528,4.158,2.792h3.115l2.785-5.511,3.191-5.687,4.79,3.751a18.378,18.378,0,0,1,8.456,3.749c1.7,1.281,3.055,3.634,4.791,5.479,2.31,2.452,4.6,4.909,4.6,4.909h2.293l8.5-5.929,8.336-7.4,3.964-.7h11.233v-2.933l-1.877-2.3-2.235-1.057v-1.444l2.765-1.223,1.348-1.672s-.254-5.2,0-14.087c.092-3.247-.049-7.583.357-12.046a73.942,73.942,0,0,1,2.115-11.049,45.929,45.929,0,0,1,3.3-8.931c.5-1,1.359-2.369,1.9-3.655,1.1-2.628,3.839-5.361,5.423-7.842,1.9-2.979,5.031-5.136,7.416-7.677,2.713-2.894,6.36-5.082,9.132-7.267,3-2.365,5.39-3.511,7.511-4.95,1.9-1.288,3.382-2.164,3.382-2.164l1.381-4.742h2.858l1.172,2.029h2.092l2.578-3.715,3.381-3.76,2.813-2.581.976-1.687.523-4.1-1.5-1.832-.567-2.388,1.543-2.476v-8.2l3.9-4.252,5.409-2.785v-1.292l-3.8-3.043.722-1.678,4.817-2.287,3.291-4.781-.519-2.276-5.81-.213-3.657,1.569-1.441.739-2.264-.259-1.7-3.927-3.037-2.245-6.067-2-2.517-3.193-3.253-7.3-2.967-.328-.167-2.732,3.134-1.241-.161-3.768-1.107-1.245v-7.59l.823-2.585,5.024-5.336,2.32-4.1,1.447-1.072,2.85,1.876,3.757,1.568h2.818l2.273-1.326,3.483-1.187,4.849-.714,2.471-2.339-.143-1.617-1.612-.413-2.519-3.719-3.435-2.649,1.315-2.055-1.867-2.44.94-3.836s-4.812-10.139-.94-28.276a74.913,74.913,0,0,1,2.828-10c.571-1.557,1.375-3.019,2.067-4.741.97-2.416,1.984-4.56,3.034-6.9a67.958,67.958,0,0,1,3.229-6.76,28.833,28.833,0,0,1,4.336-5.595,22.947,22.947,0,0,0,5.373-9.129,53.223,53.223,0,0,0,2.214-9.9,26.617,26.617,0,0,0,.205-4.06l5.985-9.011,4.021-6.013v-5.13h-2.5v2.256l-2.6,2.874h-2.269l-1.1-4.492.7-12.465-3.552-17.321-7.236-11.686-.8-7.645-4.5-8.172.652-3.75h3.85l4.684,11.271,1.83-.6,1.421-2.692h1.343l.136,3.674,1.24,4.609,3.757,6.953,1.287,4.294.453,3.747-.286,2.248,9.611,14.51-.3,2.8-2.424,2.567-3.385,1.894.3,1.61,4.791,3.518,3.746,1.557,3.293.939,3.115.667,4.16,1.988,2.729-.437,4.246-2.017,3.721.945,4.653-2.087a41.794,41.794,0,0,1,6.055-6.308,67.293,67.293,0,0,1,9.9-6.536l.486-16.736.814-.59.941.378,1.326,13.528,3.213-2.424,4.849-8.013,1.032-6.208h3.828s1.231-3.877,9.792-9.482c1.933-1.267,8.823-2.523,12.214-3.309,2.925-.679,12.177-2.464,12.177-2.464h32.968l9.346-10.044s17.336,2.618,31.09,0a42.674,42.674,0,0,0,21.683-11.1l16.223-11.291,30.466,5.76,27.449,8.126s38.294,16.92,71.5,41.637c3.1,2.3,6.761,2.676,10.853,5.048a135.971,135.971,0,0,1,20.91,15.348c8.478,7.676,23.857,24.039,27.944,36.466,2.328,7.078-1.153,9.547-1.867,14.856a74.8,74.8,0,0,0,0,15.472s14.771-9.646,14.807-24.62c.007-3.256-.785-6.736-4.281-8.715-2.457-1.39-7.592-1.184-8.658-4.177-1.126-3.162-4.789-8.4-4.939-12.339-.346-8.994,5.372-17.089,6.674-20.114,5.383-12.522,109.915-17.225,109.915-17.225v-35.113l-.91-391.632-859.4,6.166-3.854-1.118a34.27,34.27,0,0,1-.935,3.5c-.831,2.538-2.221,6.637-5.191,9.558-1.245,1.225-2.773,3.014-4.472,3.869a12.272,12.272,0,0,1-3.443.684c-2.123.405-3.673.571-3.673.571v4.108l2.488,1.3,4.628,3.862.876,10.411,3.191,3.611-1.759,6.884,3.576,22.317a9.775,9.775,0,0,0,3.1,4.221,11.366,11.366,0,0,0,4.88,1.576l4.887,3.127,3.449-1.09,2.5-3.782,3.616-2.073,4.161-1.8,1.23-3.354h11.307l5.846-4.849,6.285-3.506,17.613,12.47v1.993l-18.737-7.347-1.852,1.154a6.382,6.382,0,0,1-1.03,2.437,6.19,6.19,0,0,1-2.539,1.758,11.167,11.167,0,0,1-4.312.39,21.57,21.57,0,0,1-3.446-.39l-14.525,9.642-1.607,12.795-3.6,10.205-2.94,1.329v-3.12l2.035-3.566-.578-7.26-1.2-.778-2.595-.511-1.955,2.183-1.557-.32-.811-.888-1.348-2.374,1.6-5.074-3.98-.553-1.241,1.095s-3.3-.436-6.132,4.284-5.291,14.191-5.291,14.191l-4.351,2.691-4.164,5.807-3.335.949s-4.938,5.033-9.9,11.057c-2.77,3.362-5.548,7.662-9.067,10.887a21.48,21.48,0,0,1-11.276,5.236,34.688,34.688,0,0,1-16.045-1.456,9.092,9.092,0,0,1-2.623-2.48c-1.918-2.257-3.59-5.567-5.511-7.651-3.875-4.2-6.5-5.314-6.5-5.314l-13.548.557-2-1-2.12-.257-6.8-4.293a79.625,79.625,0,0,1-12.449,1.062,108.4,108.4,0,0,1-13.672-1.062l-.641,8.347-1.869,1.954v4.034l1.086,2.82v15.7l-.78,8.582-.6,6.638-2.109,5.326-.262,1.884-.99,8.563-2.2,1.986.328,2.345Z" transform="translate(6091.291 -10695.004)"/>
    <g id="Small_paths" data-name="Small paths" transform="translate(421.001 358.084)">
      <path id="Path_146" data-name="Path 146" class="cls-4" d="M-4995.845,11095.705h59.534s35.478,3.144,61.052-3.774c10.716-2.9,15.792-9.545,23.541-14.433,10.238-6.454,15.816-10.051,15.816-10.051" transform="translate(5660.276 -11067.447)"/>
      <path id="Path_147" data-name="Path 147" class="cls-4" d="M-4782.849,11104.692s43.9-8.542,66.139,8.471,23.618,57.979,23.618,57.979" transform="translate(5651.37 -11068.872)"/>
      <path id="Path_148" data-name="Path 148" class="cls-5" d="M-4781.913,11327.36s11.534-15.064,6.209-30.475c-2.955-8.551-13.273-14.977-20.165-21.191a31.107,31.107,0,0,1-7.343-9.97" transform="translate(5652.361 -11075.595)"/>
      <path id="Path_149" data-name="Path 149" class="cls-5" d="M-5057.913,11275.98v13.177s8.815,7.584,12.451,13.815,2.087,11.113,2.087,11.113-12.591,32.822-7.183,53.128,27.625,20.051,27.625,20.051" transform="translate(5662.827 -11076.015)"/>
      <path id="Path_150" data-name="Path 150" class="cls-4" d="M-5209.221,11331.125l-1.628,20.12-8.335,8.959.649,36.606" transform="translate(5669.453 -11078.57)"/>
      <path id="Path_151" data-name="Path 151" class="cls-4" d="M-5469.156,11356.37l44.57,1.608s17.5-7.171,39.593,1.362c8.331,3.219,10.992,11.42,19.175,16.6,12.878,8.153,24.7,14.723,24.7,14.723" transform="translate(5679.724 -11079.27)"/>
      <path id="Path_152" data-name="Path 152" class="cls-4" d="M-5501.006,11484.59a120.233,120.233,0,0,0-14.57,13.75c-7.44,8.457-12.636,19.984-12.221,32.051.283,8.2,2.4,19.72,7.528,26.856,8.592,11.95,22.243,17.188,22.243,17.188" transform="translate(5682.135 -11084.609)"/>
      <path id="Path_153" data-name="Path 153" class="cls-4" d="M-5688.747,11522s13.736,12.114,21.587,25.382a83.277,83.277,0,0,1,9.818,27.688" transform="translate(5688.747 -11086.125)"/>
    </g>
    <path id="Main_Path" data-name="Main Path" class="cls-6" d="M-5691.6,11547.578a73.318,73.318,0,0,0,14.551,1.265c8.9,0,19.613-3.284,19.613-3.284s11.685,2.335,32.363-7.188c6.176-2.844,10.438-8.842,19.341-14.166,6.714-4.016,12.8-10.976,20.734-16.279,8.807-5.891,19.691-14.951,28.828-21.093,11.054-7.432,18.685-10.965,27.017-16.208,10.531-6.626,20.106-13.813,20.106-13.813l21.568-1.705,40.85-11.878s41.609-11.645,65.946-30.522,30.444-44.246,30.444-44.246l34.342-27.836s24.6-17.824,46.8-24.059c28.058-9.948,41.386-7,41.386-7l19.5,4.5a171.063,171.063,0,0,1,27.607,8.694,161.282,161.282,0,0,1,24.88,13.77s13.045,12.8,40.358,19.892,67.015,12.044,67.015,12.044,17.483-19.38,53.844-34.779c10.647-4.509,25.932-11.2,41.242-14.573,10.545-2.324,21.263-1.54,29.911-3.6,19.769-4.721,28.136-8.944,28.136-8.944s15.047-14.143,30.176-29.982,30.535-34.041,30.535-34.041a109.456,109.456,0,0,1,23.118-16.521c13.024-6.718,28.979-10.349,28.979-10.349s7.868-7.863,11.038-16.662,2.95-13.342,1.654-16.682-4.043-6.652-8.921-9.886a44.158,44.158,0,0,0-10.608-4.89s-14.53-15.467-22.142-33.237-8.308-37.848-8.308-37.848-3.985-19.176-15.8-29.577-30.6-10-30.6-10-34.35,5.042-54.858-12.481-25.408-56.645-25.408-56.645a242.8,242.8,0,0,0-16.488-24.709,199.959,199.959,0,0,0-18.88-20.7s-21.874-30.213-33.516-62.9-11.157-67.655-11.157-67.655" transform="translate(6109.866 -10698.858)"/>
  </g>
</svg>
